<svg width="15" height="16" viewBox="0 0 15 16" fill="none" xmlns="http://www.w3.org/2000/svg">
<path d="M1.875 3.625H4.375M13.125 3.625H6.875M1.875 8H9.375M13.125 8H11.875M1.875 12.375H3.125M13.125 12.375H5.625" stroke="black" stroke-linecap="round" stroke-linejoin="round"/>
<path d="M5.625 4.875C6.31536 4.875 6.875 4.31536 6.875 3.625C6.875 2.93464 6.31536 2.375 5.625 2.375C4.93464 2.375 4.375 2.93464 4.375 3.625C4.375 4.31536 4.93464 4.875 5.625 4.875Z" stroke="black" stroke-linecap="round" stroke-linejoin="round"/>
<path d="M10.625 9.25C11.3154 9.25 11.875 8.69036 11.875 8C11.875 7.30964 11.3154 6.75 10.625 6.75C9.93464 6.75 9.375 7.30964 9.375 8C9.375 8.69036 9.93464 9.25 10.625 9.25Z" stroke="black" stroke-linecap="round" stroke-linejoin="round"/>
<path d="M4.375 13.625C5.06536 13.625 5.625 13.0654 5.625 12.375C5.625 11.6846 5.06536 11.125 4.375 11.125C3.68464 11.125 3.125 11.6846 3.125 12.375C3.125 13.0654 3.68464 13.625 4.375 13.625Z" stroke="black" stroke-linecap="round" stroke-linejoin="round"/>
</svg>
