<svg width="58" height="58" viewBox="0 0 58 58" fill="none" xmlns="http://www.w3.org/2000/svg">
<g clip-path="url(#clip0_29_78)">
<path d="M57.5915 29C57.5915 13.2093 44.7907 0.408447 29 0.408447C13.2093 0.408447 0.408447 13.2093 0.408447 29C0.408447 44.7907 13.2093 57.5915 29 57.5915C44.7907 57.5915 57.5915 44.7907 57.5915 29Z" fill="black" stroke="#FF9000"/>
<path d="M16.5164 35.2072C15.7723 35.2081 15.0446 34.9883 14.4254 34.5755C13.8063 34.1628 13.3235 33.5756 13.0382 32.8884C12.7527 32.2012 12.6777 31.4448 12.8223 30.7149C12.9669 29.9849 13.3247 29.3143 13.8506 28.7878C14.3765 28.2614 15.0467 27.9027 15.7764 27.7572C16.5062 27.6117 17.2627 27.6859 17.9502 27.9705C18.6378 28.2551 19.2255 28.7371 19.639 29.3558C20.0525 29.9744 20.2732 30.7018 20.2732 31.4459C20.272 32.4423 19.876 33.3977 19.1718 34.1027C18.4676 34.8077 17.5128 35.2049 16.5164 35.2072ZM16.5164 28.5911C15.9505 28.5902 15.3971 28.7573 14.9261 29.0711C14.4553 29.3849 14.0881 29.8314 13.8711 30.3541C13.6541 30.8767 13.5971 31.4521 13.7073 32.0072C13.8174 32.5623 14.0899 33.0721 14.4901 33.4723C14.8902 33.8724 15.4001 34.1448 15.9552 34.255C16.5102 34.3652 17.0855 34.3082 17.6082 34.0913C18.1308 33.8743 18.5773 33.5071 18.8912 33.0361C19.205 32.5653 19.3721 32.0118 19.3712 31.4459C19.37 30.6891 19.0689 29.9637 18.5337 29.4285C17.9986 28.8935 17.2732 28.5923 16.5164 28.5911Z" fill="#FF9100"/>
<path d="M43.8016 35.2072C43.0575 35.2081 42.3298 34.9883 41.7107 34.5755C41.0916 34.1628 40.6088 33.5756 40.3234 32.8884C40.038 32.2012 39.9628 31.4448 40.1075 30.7149C40.2521 29.9849 40.61 29.3143 41.1358 28.7878C41.6617 28.2614 42.3319 27.9027 43.0617 27.7572C43.7914 27.6117 44.5479 27.6859 45.2355 27.9705C45.923 28.2551 46.5107 28.7371 46.9242 29.3558C47.3377 29.9744 47.5584 30.7018 47.5584 31.4459C47.5573 32.4423 47.1612 33.3977 46.4571 34.1027C45.7529 34.8077 44.798 35.2049 43.8016 35.2072ZM43.8016 28.5911C43.2357 28.5902 42.6822 28.7573 42.2114 29.0711C41.7404 29.3849 41.3733 29.8314 41.1563 30.3541C40.9393 30.8767 40.8824 31.4521 40.9925 32.0072C41.1027 32.5623 41.3751 33.0721 41.7752 33.4723C42.1754 33.8724 42.6853 34.1448 43.2404 34.255C43.7954 34.3652 44.3708 34.3082 44.8934 34.0913C45.4161 33.8743 45.8626 33.5071 46.1764 33.0361C46.4903 32.5653 46.6574 32.0118 46.6565 31.4459C46.6552 30.6891 46.354 29.9637 45.819 29.4285C45.2838 28.8935 44.5584 28.5923 43.8016 28.5911Z" fill="#FF9100"/>
<path d="M43.8018 33.2319C43.445 33.2319 43.0962 33.1261 42.7995 32.9278C42.5028 32.7296 42.2717 32.4479 42.1351 32.1183C41.9986 31.7886 41.9629 31.4259 42.0325 31.0759C42.1021 30.726 42.2739 30.4046 42.5261 30.1522C42.7785 29.9 43.0999 29.7282 43.4498 29.6586C43.7998 29.589 44.1625 29.6247 44.4922 29.7612C44.8218 29.8978 45.1035 30.1289 45.3017 30.4256C45.5 30.7223 45.6058 31.0711 45.6058 31.4279C45.6058 31.9064 45.4157 32.3652 45.0774 32.7035C44.7391 33.0418 44.2803 33.2319 43.8018 33.2319ZM43.8018 30.562C43.6234 30.562 43.449 30.6148 43.3006 30.714C43.1523 30.8131 43.0367 30.9539 42.9685 31.1188C42.9002 31.2835 42.8823 31.465 42.9171 31.6399C42.9519 31.8149 43.0378 31.9756 43.164 32.1018C43.2901 32.2279 43.4509 32.3138 43.6258 32.3486C43.8007 32.3834 43.9822 32.3655 44.1469 32.2973C44.3118 32.229 44.4526 32.1134 44.5517 31.9651C44.6509 31.8167 44.7037 31.6423 44.7037 31.4639C44.7037 31.2247 44.6087 30.9953 44.4396 30.8262C44.2705 30.657 44.041 30.562 43.8018 30.562Z" fill="#FF9100"/>
<path d="M16.5162 33.2319C16.1594 33.2319 15.8107 33.1261 15.514 32.9278C15.2173 32.7296 14.9861 32.4479 14.8496 32.1183C14.713 31.7886 14.6773 31.4259 14.7469 31.0759C14.8165 30.726 14.9883 30.4046 15.2406 30.1522C15.4929 29.9 15.8143 29.7282 16.1643 29.6586C16.5142 29.589 16.877 29.6247 17.2066 29.7612C17.5362 29.8978 17.8179 30.1289 18.0162 30.4256C18.2144 30.7223 18.3202 31.0711 18.3202 31.4279C18.3202 31.9064 18.1302 32.3652 17.7918 32.7035C17.4535 33.0418 16.9947 33.2319 16.5162 33.2319ZM16.5162 30.562C16.3378 30.562 16.1634 30.6148 16.0151 30.714C15.8668 30.8131 15.7512 30.9539 15.6829 31.1188C15.6146 31.2835 15.5967 31.465 15.6315 31.6399C15.6664 31.8149 15.7522 31.9756 15.8784 32.1018C16.0046 32.2279 16.1653 32.3138 16.3402 32.3486C16.5152 32.3834 16.6966 32.3655 16.8614 32.2973C17.0262 32.229 17.1671 32.1134 17.2662 31.9651C17.3653 31.8167 17.4182 31.6423 17.4182 31.4639C17.4182 31.2247 17.3231 30.9953 17.154 30.8262C16.9849 30.657 16.7554 30.562 16.5162 30.562Z" fill="#FF9100"/>
<path d="M40.4913 32.6141H19.8221C19.7025 32.6141 19.5877 32.5665 19.5032 32.482C19.4186 32.3973 19.3711 32.2826 19.3711 32.163C19.3711 32.0434 19.4186 31.9287 19.5032 31.8441C19.5877 31.7596 19.7025 31.712 19.8221 31.712H40.4913C40.6109 31.712 40.7256 31.7596 40.8102 31.8441C40.8948 31.9287 40.9423 32.0434 40.9423 32.163C40.9423 32.2826 40.8948 32.3973 40.8102 32.482C40.7256 32.5665 40.6109 32.6141 40.4913 32.6141Z" fill="#FF9100"/>
<path d="M47.1078 32.6186C46.9881 32.6269 46.8701 32.5875 46.7796 32.5088C46.6891 32.4301 46.6336 32.3188 46.6252 32.1991C46.6168 32.0795 46.6563 31.9615 46.735 31.871C46.8136 31.7805 46.925 31.725 47.0446 31.7166L48.4427 31.5182C48.4427 31.4505 48.4427 31.3783 48.4788 31.3107C48.7765 29.7818 49.2274 27.4772 48.2307 27.0127C45.2722 25.6371 42.4895 25.777 39.8241 25.9078C38.9627 25.9484 38.1465 25.9889 37.3211 25.9844C37.26 25.9836 37.1998 25.9704 37.144 25.9456C37.0881 25.9207 37.0379 25.8849 36.9963 25.8401C31.7062 20.2026 22.1721 20.7212 16.0205 24.4645C14.1624 25.7048 12.0787 25.6777 10.2477 25.6552H9.88241C10.0236 25.9372 10.1108 26.2431 10.1395 26.5572C10.1438 26.5931 10.1438 26.6295 10.1395 26.6654C10.0233 27.1904 9.87269 27.7071 9.68847 28.2123C9.23746 29.4706 8.8496 30.6658 9.5487 31.5137L13.2423 31.685C13.3015 31.6877 13.3597 31.702 13.4134 31.7271C13.4671 31.7523 13.5153 31.7877 13.5553 31.8314C13.5953 31.8752 13.6263 31.9264 13.6464 31.9822C13.6667 32.0379 13.6757 32.0971 13.6731 32.1563C13.6704 32.2155 13.6561 32.2736 13.6309 32.3274C13.6058 32.381 13.5704 32.4292 13.5266 32.4693C13.4828 32.5092 13.4316 32.5403 13.3759 32.5604C13.3202 32.5806 13.2609 32.5897 13.2017 32.587L9.32316 32.4066C9.21116 32.4016 9.10504 32.3549 9.02548 32.2758C7.7582 31.0536 8.32196 29.4255 8.82256 27.9507C8.9848 27.5079 9.12179 27.0562 9.23297 26.5978C9.15063 26.203 8.98112 25.8317 8.73687 25.5108C8.68704 25.4445 8.65648 25.3656 8.64864 25.283C8.6408 25.2003 8.65583 25.1172 8.69218 25.0426C8.72862 24.9679 8.78482 24.9048 8.85483 24.8601C8.92475 24.8154 9.00563 24.7909 9.08862 24.7893C9.46301 24.7893 9.85537 24.7893 10.2567 24.7893C11.957 24.7893 13.8918 24.8343 15.5379 23.7385C21.9556 19.8147 31.8776 19.278 37.497 25.0914C38.2322 25.0914 38.9763 25.0553 39.752 25.0147C42.5527 24.8794 45.4481 24.7352 48.6096 26.2054C50.2422 26.9721 49.7326 29.5879 49.3628 31.4956C49.3267 31.676 49.2906 31.8519 49.2635 32.0143C49.2465 32.1071 49.2009 32.1923 49.1329 32.2579C49.0649 32.3235 48.9781 32.366 48.8847 32.3796L47.1664 32.6231L47.1078 32.6186Z" fill="#FF9100"/>
<path d="M27.7822 29.1007C27.6626 29.1049 27.5463 29.0614 27.4587 28.9798C27.3711 28.8982 27.3196 28.7851 27.3154 28.6655C27.3112 28.5459 27.3548 28.4295 27.4364 28.342C27.518 28.2545 27.631 28.2029 27.7506 28.1988C28.576 28.1356 29.4599 28.0499 30.3845 27.9371C30.4434 27.9303 30.5031 27.9351 30.5602 27.9512C30.6173 27.9675 30.6707 27.9948 30.7171 28.0317C30.7637 28.0686 30.8024 28.1142 30.8313 28.1661C30.8601 28.218 30.8784 28.2751 30.8851 28.334C30.892 28.3929 30.8872 28.4527 30.871 28.5098C30.8548 28.5669 30.8274 28.6202 30.7906 28.6667C30.7537 28.7133 30.708 28.752 30.6561 28.7808C30.6042 28.8096 30.5471 28.8279 30.4882 28.8346C29.5546 28.9429 28.6572 29.0331 27.8183 29.0962L27.7822 29.1007Z" fill="#FF9100"/>
<path d="M24.6208 27.4275C22.384 27.4229 20.1592 27.0994 18.0136 26.4669C16.2178 25.9279 14.3549 25.6439 12.4799 25.6235C12.3603 25.6235 12.2456 25.576 12.161 25.4914C12.0765 25.4069 12.0289 25.2922 12.0289 25.1726C12.0289 25.0529 12.0765 24.9382 12.161 24.8537C12.2456 24.769 12.3603 24.7216 12.4799 24.7216C14.431 24.7394 16.3699 25.0324 18.2392 25.592C20.3707 26.2219 22.5831 26.5364 24.8057 26.5255C30.0598 26.4894 36.9555 25.0643 37.0277 25.0508C37.1473 25.0268 37.2716 25.0514 37.3731 25.1191C37.4745 25.1867 37.545 25.2919 37.5689 25.4116C37.5929 25.5312 37.5683 25.6554 37.5007 25.7569C37.4329 25.8584 37.3277 25.9289 37.2081 25.9528C37.1405 25.9528 30.1545 27.4095 24.8102 27.4456L24.6208 27.4275Z" fill="#FF9100"/>
<path d="M25.9106 27.4005C25.8081 27.4037 25.7076 27.372 25.6257 27.3105C25.5437 27.249 25.4851 27.1615 25.4595 27.0622C25.0389 25.1271 24.8646 23.1466 24.9409 21.1677C24.9438 21.1084 24.9583 21.0503 24.9837 20.9967C25.0091 20.9431 25.0448 20.895 25.0888 20.8552C25.1328 20.8154 25.1842 20.7847 25.24 20.7648C25.2959 20.7449 25.3552 20.7362 25.4145 20.7392C25.5301 20.745 25.6391 20.7951 25.7188 20.879C25.7986 20.963 25.843 21.0744 25.8429 21.1902C25.772 23.0793 25.9356 24.9699 26.33 26.8187C26.3449 26.8761 26.3483 26.9359 26.34 26.9947C26.3318 27.0535 26.312 27.1101 26.2818 27.1612C26.2517 27.2123 26.2117 27.257 26.1642 27.2926C26.1167 27.3283 26.0627 27.3542 26.0052 27.3689C25.9749 27.3827 25.9432 27.3932 25.9106 27.4005Z" fill="#FF9100"/>
<path d="M39.4675 20.2206C39.1052 20.2206 38.751 20.1131 38.4498 19.9117C38.1485 19.7103 37.9138 19.424 37.7755 19.0892C37.637 18.7544 37.601 18.386 37.672 18.0306C37.743 17.6754 37.9178 17.3491 38.1744 17.0932C38.4309 16.8373 38.7576 16.6633 39.1131 16.5931C39.4686 16.523 39.8368 16.5599 40.1714 16.6992C40.5059 16.8384 40.7915 17.0739 40.9922 17.3756C41.1928 17.6772 41.2995 18.0317 41.2986 18.3941C41.2974 18.8789 41.1039 19.3435 40.7607 19.6859C40.4174 20.0283 39.9523 20.2206 39.4675 20.2206ZM39.4675 17.465C39.2838 17.465 39.1042 17.5195 38.9514 17.6216C38.7986 17.7236 38.6795 17.8687 38.6092 18.0385C38.5389 18.2083 38.5205 18.395 38.5563 18.5753C38.5922 18.7555 38.6807 18.921 38.8106 19.051C38.9405 19.1809 39.106 19.2694 39.2862 19.3052C39.4665 19.3411 39.6533 19.3227 39.823 19.2524C39.9929 19.182 40.1379 19.0629 40.24 18.9102C40.3421 18.7574 40.3966 18.5778 40.3966 18.3941C40.3971 18.2719 40.3735 18.1508 40.3271 18.0378C40.2806 17.9248 40.2122 17.8222 40.1258 17.7358C40.0394 17.6494 39.9367 17.581 39.8238 17.5345C39.7108 17.488 39.5897 17.4644 39.4675 17.465Z" fill="#FF9100"/>
<path d="M39.4676 23.6347C39.3493 23.6342 39.2359 23.5872 39.1518 23.5039L36.7526 21.1091V21.082C36.2225 20.5426 35.8636 19.8586 35.721 19.1161C35.5784 18.3734 35.6583 17.6051 35.9507 16.9077C36.2432 16.2104 36.7351 15.615 37.3648 15.1962C37.9945 14.7774 38.7339 14.5541 39.4901 14.5541C40.2463 14.5541 40.9857 14.7774 41.6154 15.1962C42.2451 15.615 42.737 16.2104 43.0295 16.9077C43.3219 17.6051 43.4018 18.3734 43.2592 19.1161C43.1166 19.8586 42.7577 20.5426 42.2276 21.082V21.1091L39.8329 23.5039C39.7856 23.5515 39.7281 23.5879 39.665 23.6106C39.6018 23.6332 39.5343 23.6415 39.4676 23.6347ZM37.4155 20.4777L39.4676 22.5342L41.5241 20.4777C41.9351 20.0673 42.2152 19.5441 42.3287 18.9745C42.4424 18.4048 42.3845 17.8142 42.1624 17.2775C41.9403 16.7408 41.564 16.2821 41.0811 15.9592C40.5981 15.6365 40.0304 15.4641 39.4495 15.4641C38.8687 15.4641 38.3009 15.6365 37.8179 15.9592C37.335 16.2821 36.9587 16.7408 36.7366 17.2775C36.5145 17.8142 36.4566 18.4048 36.5702 18.9745C36.6839 19.5441 36.9639 20.0673 37.3749 20.4777H37.4155Z" fill="#FF9100"/>
<path d="M41.9797 16.563C41.9204 16.5634 41.8615 16.552 41.8066 16.5295C41.7517 16.5071 41.7017 16.4741 41.6595 16.4323L41.4296 16.2022C41.3452 16.1161 41.2985 16 41.2998 15.8795C41.3011 15.759 41.3502 15.6439 41.4363 15.5596C41.5224 15.4753 41.6385 15.4286 41.759 15.4298C41.8796 15.4311 41.9946 15.4802 42.079 15.5663L42.3089 15.7964C42.393 15.8808 42.4401 15.9951 42.4401 16.1143C42.4401 16.2334 42.393 16.3478 42.3089 16.4323C42.2657 16.4751 42.2144 16.5089 42.1577 16.5313C42.1011 16.5538 42.0406 16.5646 41.9797 16.563Z" fill="#FF9100"/>
<path d="M49.0333 35.2884H11.8621C11.7425 35.2884 11.6278 35.241 11.5432 35.1563C11.4586 35.0718 11.4111 34.9571 11.4111 34.8374C11.4111 34.7178 11.4586 34.6031 11.5432 34.5186C11.6278 34.4339 11.7425 34.3865 11.8621 34.3865H49.0333C49.153 34.3865 49.2677 34.4339 49.3522 34.5186C49.4368 34.6031 49.4843 34.7178 49.4843 34.8374C49.4843 34.9571 49.4368 35.0718 49.3522 35.1563C49.2677 35.241 49.153 35.2884 49.0333 35.2884Z" fill="#FF9100"/>
<path d="M9.63413 35.2884H8.96664C8.84704 35.2884 8.73235 35.241 8.64772 35.1563C8.56317 35.0718 8.51562 34.9571 8.51562 34.8374C8.51562 34.7178 8.56317 34.6031 8.64772 34.5186C8.73235 34.4339 8.84704 34.3865 8.96664 34.3865H9.63413C9.75372 34.3865 9.86841 34.4339 9.95304 34.5186C10.0376 34.6031 10.0851 34.7178 10.0851 34.8374C10.0851 34.9571 10.0376 35.0718 9.95304 35.1563C9.86841 35.241 9.75372 35.2884 9.63413 35.2884Z" fill="#FF9100"/>
<path d="M11.3392 44.1126V38.1716H14.9247V38.8097H12.0586V40.6663H13.5671C13.9925 40.6663 14.3513 40.736 14.6433 40.8752C14.9373 41.0145 15.1597 41.2108 15.3105 41.4641C15.4633 41.7174 15.5397 42.0162 15.5397 42.3605C15.5397 42.7047 15.4633 43.0084 15.3105 43.2714C15.1597 43.5344 14.9373 43.7404 14.6433 43.8893C14.3513 44.0382 13.9925 44.1126 13.5671 44.1126H11.3392ZM12.0586 43.4861H13.5671C13.8378 43.4861 14.067 43.4319 14.2546 43.3236C14.4441 43.2133 14.5873 43.0722 14.6839 42.9C14.7826 42.726 14.8318 42.5423 14.8318 42.3489C14.8318 42.0646 14.7226 41.8199 14.5041 41.615C14.2856 41.4081 13.9732 41.3046 13.5671 41.3046H12.0586V43.4861ZM17.0373 44.1938V43.5209H17.4086C17.5517 43.5209 17.6716 43.4928 17.7684 43.4367C17.867 43.3806 17.9482 43.3082 18.012 43.2191C18.0778 43.1302 18.132 43.0374 18.1744 42.9406L18.2673 42.7202L16.2135 38.1716H16.9909L18.627 41.8615L20.1239 38.1716H20.8897L18.8359 43.1495C18.7547 43.3352 18.6618 43.5073 18.5574 43.6659C18.4549 43.8245 18.3147 43.9521 18.1368 44.0489C17.9607 44.1455 17.722 44.1938 17.4203 44.1938H17.0373ZM21.8217 38.1716H22.6803L24.6993 43.1031H24.769L26.7881 38.1716H27.6467V44.1126H26.9737V39.5988H26.9157L25.0591 44.1126H24.4093L22.5527 39.5988H22.4947V44.1126H21.8217V38.1716ZM29.3329 44.1126H28.5787L30.7602 38.1716H31.5028L33.6843 44.1126H32.93L31.1547 39.1114H31.1083L29.3329 44.1126ZM29.6114 41.7919H32.6516V42.4301H29.6114V41.7919ZM34.5169 44.1126V39.6569H36.3386C36.8182 39.6569 37.1993 39.7651 37.4816 39.9817C37.764 40.1983 37.9051 40.4845 37.9051 40.8404C37.9051 41.1112 37.8249 41.321 37.6644 41.4699C37.5039 41.6169 37.2978 41.7165 37.0465 41.7687C37.2108 41.7919 37.3704 41.8499 37.5251 41.9428C37.6818 42.0356 37.8114 42.1632 37.9139 42.3257C38.0163 42.4862 38.0676 42.6835 38.0676 42.9174C38.0676 43.1457 38.0095 43.3497 37.8935 43.5295C37.7775 43.7094 37.6112 43.8516 37.3946 43.956C37.1779 44.0605 36.9188 44.1126 36.6171 44.1126H34.5169ZM35.1666 43.4861H36.6171C36.853 43.4861 37.0377 43.43 37.1712 43.3178C37.3046 43.2056 37.3714 43.0529 37.3714 42.8594C37.3714 42.6293 37.3046 42.4485 37.1712 42.3169C37.0377 42.1835 36.853 42.1168 36.6171 42.1168H35.1666V43.4861ZM35.1666 41.525H36.3386C36.5224 41.525 36.6799 41.4999 36.8115 41.4496C36.943 41.3974 37.0435 41.3239 37.1131 41.2292C37.1847 41.1324 37.2205 41.0183 37.2205 40.8868C37.2205 40.6992 37.1422 40.5523 36.9855 40.4459C36.8289 40.3376 36.6133 40.2834 36.3386 40.2834H35.1666V41.525ZM38.8487 40.295V39.6569H42.469V40.295H41.007V44.1126H40.3223V40.295H38.8487ZM45.0465 44.2055C44.6442 44.2055 44.2913 44.1097 43.9876 43.9183C43.6859 43.7268 43.45 43.459 43.2799 43.1147C43.1116 42.7705 43.0274 42.3682 43.0274 41.9079C43.0274 41.4438 43.1116 41.0387 43.2799 40.6924C43.45 40.3462 43.6859 40.0775 43.9876 39.886C44.2913 39.6945 44.6442 39.5988 45.0465 39.5988C45.4487 39.5988 45.8007 39.6945 46.1024 39.886C46.4061 40.0775 46.642 40.3462 46.8103 40.6924C46.9804 41.0387 47.0655 41.4438 47.0655 41.9079C47.0655 42.3682 46.9804 42.7705 46.8103 43.1147C46.642 43.459 46.4061 43.7268 46.1024 43.9183C45.8007 44.1097 45.4487 44.2055 45.0465 44.2055ZM45.0465 43.5905C45.3521 43.5905 45.6034 43.5121 45.8007 43.3555C45.998 43.1989 46.144 42.9929 46.2388 42.7376C46.3335 42.4824 46.3809 42.2058 46.3809 41.9079C46.3809 41.6102 46.3335 41.3326 46.2388 41.0754C46.144 40.8182 45.998 40.6103 45.8007 40.4517C45.6034 40.2931 45.3521 40.2138 45.0465 40.2138C44.741 40.2138 44.4895 40.2931 44.2922 40.4517C44.095 40.6103 43.949 40.8182 43.8542 41.0754C43.7595 41.3326 43.7121 41.6102 43.7121 41.9079C43.7121 42.2058 43.7595 42.4824 43.8542 42.7376C43.949 42.9929 44.095 43.1989 44.2922 43.3555C44.4895 43.5121 44.741 43.5905 45.0465 43.5905Z" fill="#FF9100"/>
</g>
<defs>
<clipPath id="clip0_29_78">
<rect width="58" height="58" fill="white"/>
</clipPath>
</defs>
</svg>
