<svg width="140" height="140" viewBox="0 0 140 140" fill="none" xmlns="http://www.w3.org/2000/svg">
<path d="M115.383 55.0666L104.65 25.9C103.972 23.8935 102.688 22.1475 100.973 20.9037C99.2594 19.66 97.2008 18.9801 95.0833 18.9583H44.9166C42.8271 18.963 40.7894 19.6088 39.0786 20.8084C37.3678 22.008 36.0664 23.7038 35.35 25.6666L24.6166 54.8333C22.8942 55.6576 21.4359 56.9459 20.4054 58.5532C19.3749 60.1609 18.8132 62.0241 18.7833 63.9333V90.1833C18.7498 91.8896 19.1496 93.5766 19.9454 95.0868C20.7411 96.5965 21.9067 97.8798 23.3333 98.8167V99.1666V110.833C23.3333 112.38 23.9479 113.864 25.0418 114.958C26.1358 116.052 27.6195 116.667 29.1666 116.667H35C36.5471 116.667 38.0308 116.052 39.1248 114.958C40.2187 113.864 40.8333 112.38 40.8333 110.833V100.625H99.1666V110.833C99.1666 112.38 99.7815 113.864 100.875 114.958C101.969 116.052 103.453 116.667 105 116.667H110.833C112.38 116.667 113.864 116.052 114.958 114.958C116.052 113.864 116.667 112.38 116.667 110.833V99.1666C116.667 99.1666 116.667 99.1666 116.667 98.8167C118.038 97.888 119.16 96.6356 119.933 95.1708C120.706 93.7061 121.107 92.0733 121.1 90.4166V64.1666C121.081 62.2696 120.536 60.4152 119.527 58.8087C118.518 57.2026 117.084 55.9073 115.383 55.0666ZM112.292 90.4166C112.292 90.8034 112.138 91.1744 111.865 91.448C111.591 91.7216 111.22 91.875 110.833 91.875H29.1666C28.7798 91.875 28.409 91.7216 28.1354 91.448C27.862 91.1744 27.7083 90.8034 27.7083 90.4166V64.1666C27.7083 63.7799 27.862 63.4089 28.1354 63.1353C28.409 62.8617 28.7798 62.7083 29.1666 62.7083H110.833C111.22 62.7083 111.591 62.8617 111.865 63.1353C112.138 63.4089 112.292 63.7799 112.292 64.1666V90.4166ZM43.575 28.6416C43.6798 28.3699 43.8637 28.1357 44.1028 27.9694C44.3419 27.803 44.6254 27.7121 44.9166 27.7083H95.0833C95.3744 27.7121 95.6579 27.803 95.8971 27.9694C96.1362 28.1357 96.32 28.3699 96.425 28.6416L104.592 51.0416H35.4083L43.575 28.6416Z" fill="white"/>
<path d="M46.6666 86.0417C51.4991 86.0417 55.4166 82.124 55.4166 77.2917C55.4166 72.4594 51.4991 68.5417 46.6666 68.5417C41.8341 68.5417 37.9166 72.4594 37.9166 77.2917C37.9166 82.124 41.8341 86.0417 46.6666 86.0417Z" fill="white"/>
<path d="M93.3334 86.0417C98.1657 86.0417 102.083 82.124 102.083 77.2917C102.083 72.4594 98.1657 68.5417 93.3334 68.5417C88.501 68.5417 84.5834 72.4594 84.5834 77.2917C84.5834 82.124 88.501 86.0417 93.3334 86.0417Z" fill="white"/>
</svg>
