<svg width="102" height="102" viewBox="0 0 102 102" fill="none" xmlns="http://www.w3.org/2000/svg">
<path d="M0 47.4713C0.000288854 48.8238 0.537804 50.1208 1.49432 51.077L50.924 100.507C51.8804 101.463 53.1774 102 54.5298 102C55.8821 102 57.1791 101.463 58.1355 100.507L100.507 58.1406C101.463 57.1842 102 55.8872 102 54.5349C102 53.1825 101.463 51.8855 100.507 50.9291L51.077 1.49432C50.1208 0.537804 48.8238 0.000288854 47.4713 0H5.10005C3.74744 0 2.45022 0.537325 1.49377 1.49377C0.537325 2.45022 0 3.74744 0 5.10005V47.4713ZM10.2001 10.2001H45.3599L89.6896 54.5298L54.5298 89.6896L10.2001 45.3599V10.2001ZM40.4077 26.2857C41.8043 27.6822 42.7554 29.4615 43.1407 31.3986C43.526 33.3357 43.3283 35.3435 42.5725 37.1682C41.8167 38.9929 40.5368 40.5525 38.8946 41.6498C37.2524 42.7471 35.3217 43.3328 33.3467 43.3328C31.3717 43.3328 29.441 42.7471 27.7988 41.6498C26.1566 40.5525 24.8767 38.9929 24.1209 37.1682C23.3651 35.3435 23.1674 33.3357 23.5527 31.3986C23.938 29.4615 24.8891 27.6822 26.2857 26.2857C27.2126 25.3578 28.3133 24.6217 29.5249 24.1195C30.7365 23.6173 32.0352 23.3588 33.3467 23.3588C34.6582 23.3588 35.9569 23.6173 37.1685 24.1195C38.3801 24.6217 39.4808 25.3578 40.4077 26.2857Z" fill="white"/>
</svg>
