<svg width="60" height="60" viewBox="0 0 60 60" fill="none" xmlns="http://www.w3.org/2000/svg">
<g clip-path="url(#clip0_5_351)">
<rect x="0.5" y="0.5" width="58.9064" height="59" rx="29.4532" fill="black" stroke="white"/>
<path fill-rule="evenodd" clip-rule="evenodd" d="M14.9766 21.9827C14.9766 21.3849 15.4578 20.9004 16.0515 20.9004H35.4522C36.7195 20.9004 37.7924 21.0341 38.6873 21.2891C38.7 21.2927 38.7127 21.2966 38.7253 21.3007C39.6457 21.6004 40.4278 22.0577 41.1255 22.7016C41.1406 22.7156 41.1553 22.7299 41.1696 22.7447C41.8259 23.4237 42.3077 24.2003 42.589 25.103C42.8581 25.9666 42.9939 27.0312 42.9939 28.3024V29.8823C42.9939 31.9862 42.6322 33.7919 41.7096 35.0215L41.7095 35.0216C41.0865 35.8518 40.2291 36.4362 39.1987 36.8163L43.4209 42.4031C43.6683 42.7304 43.71 43.1706 43.5286 43.5391C43.3472 43.9076 42.974 44.1407 42.5655 44.1407H36.5192C36.1667 44.1407 35.8366 43.9667 35.6358 43.6751L31.2355 37.2841H22.5261V43.0585C22.5261 43.6562 22.0449 44.1407 21.4512 44.1407H16.0515C15.4578 44.1407 14.9766 43.6562 14.9766 43.0585V21.9827ZM17.1264 23.0649V41.9762H20.3763V36.2018C20.3763 35.6041 20.8576 35.1195 21.4512 35.1195H31.7982C32.1507 35.1195 32.4808 35.2935 32.6816 35.5852L37.082 41.9762H40.3969L36.5044 36.8256C36.275 36.5221 36.2212 36.1194 36.3628 35.7656C36.5044 35.4119 36.8206 35.1593 37.1949 35.1008C38.6437 34.8743 39.5072 34.3657 39.9943 33.7168M17.1264 23.0649H35.4522C36.5663 23.0649 37.4276 23.1822 38.0826 23.3663C38.6955 23.5685 39.1946 23.8614 39.6502 24.2764C40.0813 24.7284 40.3689 25.2091 40.5377 25.7509C40.7215 26.3408 40.8441 27.172 40.8441 28.3024V29.8823C40.8441 31.8227 40.4942 33.0505 39.9944 33.7167M20.3763 26.6275C20.3763 26.0298 20.8576 25.5453 21.4512 25.5453H34.5792C35.0058 25.5453 35.4065 25.581 35.7627 25.6639C36.1065 25.7438 36.4844 25.885 36.7944 26.1501C37.392 26.661 37.5941 27.4475 37.5941 28.2075V29.977C37.5941 30.757 37.3977 31.55 36.7944 32.0657C36.466 32.3465 36.0677 32.4751 35.732 32.5428C35.3899 32.6118 35.0076 32.6377 34.6089 32.6389C34.599 32.6392 34.5891 32.6393 34.5792 32.6393H21.4512C20.8576 32.6393 20.3763 32.1548 20.3763 31.5571V26.6275ZM34.5512 30.4748C34.5605 30.4746 34.5698 30.4745 34.5792 30.4745C34.9135 30.4745 35.151 30.4525 35.3096 30.4205C35.3445 30.4134 35.372 30.4066 35.393 30.4007C35.4159 30.3328 35.4443 30.1997 35.4443 29.977V28.2075C35.4443 28.001 35.416 27.876 35.3936 27.8127C35.3926 27.81 35.3916 27.8073 35.3907 27.8048C35.3665 27.7962 35.3301 27.7848 35.2788 27.7728C35.1258 27.7372 34.896 27.7098 34.5792 27.7098H22.5261V30.4748H34.5512Z" fill="white"/>
<path d="M43.7959 19.2721C44.9731 19.2721 45.9282 18.3158 45.9282 17.1361C45.9282 15.9563 44.9731 15 43.7959 15C42.6178 15 41.6627 15.9563 41.6627 17.1361C41.6627 18.3158 42.6178 19.2721 43.7959 19.2721Z" fill="white"/>
</g>
<defs>
<clipPath id="clip0_5_351">
<rect width="59.9064" height="60" fill="white"/>
</clipPath>
</defs>
</svg>
