<svg width="61" height="60" viewBox="0 0 61 60" fill="none" xmlns="http://www.w3.org/2000/svg">
<g clip-path="url(#clip0_5_348)">
<rect width="59.9064" height="60" transform="translate(0.875122)" fill="black"/>
<rect x="1.37512" y="0.5" width="58.9064" height="59" rx="29.4532" fill="black" stroke="white"/>
<path d="M43.9078 19.1415C44.1411 17.6312 42.7075 16.4392 41.3667 17.0287L14.6627 28.7715C13.7012 29.1943 13.7716 30.6531 14.7688 30.9711L20.2757 32.7276C21.3269 33.0628 22.4649 32.8894 23.3828 32.2543L35.7988 23.6631C36.1732 23.4039 36.5813 23.9372 36.2614 24.2674L27.3241 33.4961C26.4571 34.3914 26.6292 35.9085 27.6721 36.5634L37.6783 42.8481C38.8006 43.5529 40.2444 42.8449 40.4542 41.4864L43.9078 19.1415Z" fill="white"/>
</g>
<defs>
<clipPath id="clip0_5_348">
<rect width="59.9064" height="60" fill="white" transform="translate(0.875122)"/>
</clipPath>
</defs>
</svg>
