<svg width="61" height="60" viewBox="0 0 61 60" fill="none" xmlns="http://www.w3.org/2000/svg">
<g clip-path="url(#clip0_5_345)">
<path d="M60.1569 30C60.1569 46.2931 46.9695 59.5 30.7037 59.5C14.4379 59.5 1.25049 46.2931 1.25049 30C1.25049 13.7069 14.4379 0.5 30.7037 0.5C46.9695 0.5 60.1569 13.7069 60.1569 30Z" fill="black" stroke="white"/>
<path d="M35.0228 15.9082H26.3844C18.5006 15.9082 16.6338 17.7779 16.6338 25.674V34.326C16.6338 42.2221 18.5006 44.0918 26.3844 44.0918H35.0228C42.9066 44.0918 44.7734 42.2221 44.7734 34.326V25.674C44.7734 17.7779 42.8867 15.9082 35.0228 15.9082ZM39.352 36.0164H37.3044C36.5299 36.0164 36.2917 35.4 34.9017 33.9879C33.6901 32.816 33.1543 32.6555 32.8541 32.6555C32.437 32.6555 32.3177 32.7727 32.3177 33.3516V35.2014C32.3177 35.6988 32.1586 35.9971 30.8481 35.9971C28.6835 35.9971 26.2808 34.6846 24.5924 32.2377C22.0505 28.6576 21.3555 25.9723 21.3555 25.4156C21.3555 25.1174 21.4725 24.8391 22.0505 24.8391H24.0981C24.6147 24.8391 24.813 25.0775 25.0113 25.6348C26.024 28.5586 27.7124 31.1244 28.4045 31.1244C28.6625 31.1244 28.7818 31.0072 28.7818 30.3486V27.3252C28.7022 25.933 27.9674 25.8135 27.9674 25.3166C27.9674 25.0781 28.1658 24.8391 28.484 24.8391H31.7017C32.1387 24.8391 32.2972 25.0775 32.2972 25.5949V29.6719C32.2972 30.1096 32.4955 30.2684 32.6149 30.2684C32.8729 30.2684 33.0917 30.109 33.5679 29.632C35.0375 27.9814 36.0899 25.4355 36.0899 25.4355C36.2291 25.1373 36.4673 24.859 36.9838 24.859H39.0314C39.6469 24.859 39.7861 25.1771 39.6469 25.6148C39.3889 26.8084 36.8867 30.3486 36.8867 30.3486C36.6685 30.7066 36.5889 30.866 36.8867 31.2633C37.1049 31.5615 37.8228 32.1779 38.2966 32.7352C39.1706 33.7312 39.8458 34.565 40.0242 35.1416C40.226 35.7182 39.9277 36.0164 39.352 36.0164Z" fill="white"/>
</g>
<defs>
<clipPath id="clip0_5_345">
<rect width="59.9064" height="60" fill="white" transform="translate(0.750488)"/>
</clipPath>
</defs>
</svg>
