<svg width="92" height="92" viewBox="0 0 92 92" fill="none" xmlns="http://www.w3.org/2000/svg">
<g clip-path="url(#clip0_38_322)">
<path d="M91.3521 46.0001C91.3521 20.9528 71.0472 0.647949 45.9999 0.647949C20.9527 0.647949 0.647827 20.9528 0.647827 46.0001C0.647827 71.0473 20.9527 91.3522 45.9999 91.3522C71.0472 91.3522 91.3521 71.0473 91.3521 46.0001Z" fill="black" stroke="#FF9000"/>
<path d="M26.1984 55.8461C25.018 55.8475 23.8639 55.4988 22.8817 54.844C21.8996 54.1894 21.1338 53.258 20.6812 52.168C20.2285 51.0779 20.1094 49.8781 20.3387 48.7203C20.5681 47.5624 21.1358 46.4987 21.9699 45.6636C22.8041 44.8285 23.8671 44.2596 25.0246 44.0287C26.1822 43.7979 27.3822 43.9157 28.4727 44.367C29.5634 44.8185 30.4955 45.5831 31.1515 46.5644C31.8074 47.5457 32.1575 48.6995 32.1575 49.8798C32.1555 51.4604 31.5274 52.9758 30.4104 54.094C29.2934 55.2123 27.7788 55.8423 26.1984 55.8461ZM26.1984 45.3516C25.3008 45.3502 24.4229 45.6151 23.6759 46.1128C22.929 46.6107 22.3465 47.319 22.0024 48.148C21.6582 48.977 21.5678 49.8896 21.7426 50.7701C21.9172 51.6506 22.3494 52.4593 22.9842 53.0941C23.6189 53.7288 24.4277 54.1609 25.3082 54.3357C26.1886 54.5105 27.1011 54.4201 27.9302 54.0759C28.7592 53.7317 29.4675 53.1493 29.9653 52.4023C30.4631 51.6554 30.7281 50.7775 30.7267 49.8798C30.7248 48.6794 30.2471 47.5287 29.3983 46.6799C28.5494 45.8311 27.3988 45.3534 26.1984 45.3516Z" fill="#FF9100"/>
<path d="M69.4784 55.8461C68.2981 55.8475 67.1438 55.4988 66.1618 54.844C65.1797 54.1894 64.4139 53.258 63.9613 52.168C63.5086 51.0779 63.3893 49.8781 63.6188 48.7203C63.8482 47.5624 64.4159 46.4987 65.2499 45.6636C66.084 44.8285 67.1471 44.2596 68.3047 44.0287C69.4622 43.7979 70.6621 43.9157 71.7528 44.367C72.8434 44.8185 73.7756 45.5831 74.4315 46.5644C75.0873 47.5457 75.4375 48.6995 75.4375 49.8798C75.4356 51.4604 74.8074 52.9758 73.6905 54.094C72.5735 55.2123 71.0589 55.8423 69.4784 55.8461ZM69.4784 45.3516C68.5807 45.3502 67.7028 45.6151 66.956 46.1128C66.2089 46.6107 65.6266 47.319 65.2823 48.148C64.9382 48.977 64.8479 49.8896 65.0225 50.7701C65.1973 51.6506 65.6295 52.4593 66.2641 53.0941C66.8989 53.7288 67.7078 54.1609 68.5882 54.3357C69.4686 54.5105 70.3812 54.4201 71.2102 54.0759C72.0393 53.7317 72.7476 53.1493 73.2454 52.4023C73.7432 51.6554 74.0082 50.7775 74.0068 49.8798C74.0048 48.6794 73.5271 47.5287 72.6784 46.6799C71.8295 45.8311 70.6789 45.3534 69.4784 45.3516Z" fill="#FF9100"/>
<path d="M69.4788 52.7127C68.9128 52.7127 68.3595 52.5449 67.889 52.2304C67.4184 51.9161 67.0517 51.4692 66.835 50.9463C66.6185 50.4233 66.5619 49.848 66.6723 49.2929C66.7827 48.7379 67.0552 48.228 67.4553 47.8278C67.8556 47.4276 68.3655 47.1551 68.9205 47.0447C69.4756 46.9343 70.0509 46.991 70.5739 47.2075C71.0967 47.4241 71.5436 47.7908 71.858 48.2615C72.1725 48.732 72.3403 49.2853 72.3403 49.8513C72.3403 50.6102 72.0387 51.338 71.5022 51.8746C70.9656 52.4112 70.2377 52.7127 69.4788 52.7127ZM69.4788 48.4777C69.1958 48.4777 68.9192 48.5616 68.6839 48.7189C68.4485 48.8761 68.2652 49.0994 68.157 49.3609C68.0487 49.6223 68.0203 49.9101 68.0755 50.1875C68.1307 50.4651 68.267 50.7201 68.4671 50.9201C68.6671 51.1202 68.9221 51.2565 69.1997 51.3117C69.4771 51.3669 69.7649 51.3385 70.0263 51.2303C70.2878 51.122 70.5112 50.9387 70.6683 50.7034C70.8256 50.468 70.9095 50.1914 70.9095 49.9084C70.9095 49.529 70.7588 49.165 70.4904 48.8968C70.2222 48.6284 69.8582 48.4777 69.4788 48.4777Z" fill="#FF9100"/>
<path d="M26.198 52.7127C25.6321 52.7127 25.0789 52.5449 24.6083 52.2304C24.1378 51.9161 23.7709 51.4692 23.5544 50.9463C23.3378 50.4233 23.2811 49.848 23.3915 49.2929C23.5019 48.7379 23.7744 48.228 24.1747 47.8278C24.5748 47.4276 25.0847 47.1551 25.6398 47.0447C26.1949 46.9343 26.7703 46.991 27.2931 47.2075C27.816 47.4241 28.2629 47.7908 28.5774 48.2615C28.8917 48.732 29.0595 49.2853 29.0595 49.8513C29.0595 50.6102 28.7581 51.338 28.2214 51.8746C27.6848 52.4112 26.957 52.7127 26.198 52.7127ZM26.198 48.4777C25.9151 48.4777 25.6384 48.5616 25.4032 48.7189C25.1679 48.8761 24.9846 49.0994 24.8762 49.3609C24.7679 49.6223 24.7395 49.9101 24.7947 50.1875C24.8501 50.4651 24.9862 50.7201 25.1863 50.9201C25.3865 51.1202 25.6414 51.2565 25.9189 51.3117C26.1965 51.3669 26.4842 51.3385 26.7455 51.2303C27.007 51.122 27.2305 50.9387 27.3877 50.7034C27.5449 50.468 27.6288 50.1914 27.6288 49.9084C27.6288 49.529 27.478 49.165 27.2098 48.8968C26.9414 48.6284 26.5775 48.4777 26.198 48.4777Z" fill="#FF9100"/>
<path d="M64.2277 51.7326H31.442C31.2523 51.7326 31.0702 51.6571 30.9361 51.523C30.802 51.3888 30.7266 51.2069 30.7266 51.0172C30.7266 50.8273 30.802 50.6454 30.9361 50.5113C31.0702 50.3772 31.2523 50.3018 31.442 50.3018H64.2277C64.4174 50.3018 64.5993 50.3772 64.7334 50.5113C64.8676 50.6454 64.9429 50.8273 64.9429 51.0172C64.9429 51.2069 64.8676 51.3888 64.7334 51.523C64.5993 51.6571 64.4174 51.7326 64.2277 51.7326Z" fill="#FF9100"/>
<path d="M74.7227 51.7399C74.5328 51.7531 74.3456 51.6905 74.2022 51.5657C74.0586 51.4409 73.9705 51.2643 73.9571 51.0745C73.9439 50.8848 74.0065 50.6976 74.1313 50.554C74.2561 50.4105 74.4327 50.3224 74.6225 50.3091L76.8401 49.9943C76.8401 49.887 76.8401 49.7725 76.8974 49.6652C77.3695 47.2402 78.0848 43.5845 76.5038 42.8477C71.8111 40.6658 67.3971 40.8876 63.1693 41.0951C61.8029 41.1595 60.5081 41.2238 59.1989 41.2166C59.1021 41.2153 59.0065 41.1945 58.918 41.1551C58.8293 41.1157 58.7498 41.0588 58.6838 40.9878C50.2925 32.0455 35.1695 32.8682 25.4118 38.8058C22.4645 40.7731 19.1593 40.7302 16.255 40.6944H15.6755C15.8995 41.1417 16.0378 41.627 16.0833 42.1252C16.0902 42.1822 16.0902 42.2399 16.0833 42.2969C15.899 43.1296 15.6601 43.9493 15.3679 44.7506C14.6525 46.7465 14.0373 48.6423 15.1462 49.9872L21.005 50.2591C21.099 50.2632 21.1912 50.2859 21.2764 50.3258C21.3615 50.3657 21.4381 50.4219 21.5014 50.4913C21.5649 50.5607 21.614 50.642 21.646 50.7303C21.6782 50.8188 21.6924 50.9127 21.6883 51.0066C21.684 51.1005 21.6613 51.1927 21.6214 51.2779C21.5816 51.3631 21.5254 51.4395 21.456 51.503C21.3865 51.5664 21.3053 51.6156 21.2169 51.6476C21.1285 51.6796 21.0346 51.694 20.9406 51.6897L14.7884 51.4036C14.6108 51.3956 14.4424 51.3216 14.3162 51.1962C12.3061 49.2574 13.2003 46.6749 13.9944 44.3357C14.2517 43.6332 14.469 42.9167 14.6454 42.1896C14.5147 41.5634 14.2459 40.9744 13.8584 40.4655C13.7794 40.3603 13.7309 40.2351 13.7185 40.1041C13.7061 39.9729 13.7299 39.841 13.7876 39.7227C13.8454 39.6043 13.9345 39.5041 14.0456 39.4333C14.1565 39.3624 14.2847 39.3235 14.4164 39.3209C15.0103 39.3209 15.6326 39.3209 16.2692 39.3209C18.9663 39.3209 22.0352 39.3924 24.6463 37.6542C34.8261 31.4303 50.5644 30.579 59.478 39.8002C60.6441 39.8002 61.8244 39.7429 63.0549 39.6785C67.4973 39.464 72.09 39.2351 77.1048 41.5671C79.6944 42.7833 78.8861 46.9326 78.2995 49.9586C78.2422 50.2447 78.185 50.5237 78.1421 50.7813C78.1151 50.9286 78.0427 51.0637 77.9349 51.1677C77.8271 51.2717 77.6893 51.3392 77.5412 51.3607L74.8156 51.747L74.7227 51.7399Z" fill="#FF9100"/>
<path d="M44.0682 46.1598C43.8785 46.1664 43.694 46.0975 43.5551 45.9681C43.4162 45.8386 43.3346 45.6593 43.3278 45.4696C43.3212 45.2797 43.3903 45.0952 43.5197 44.9563C43.6492 44.8175 43.8285 44.7358 44.0182 44.7292C45.3273 44.629 46.7295 44.4931 48.1961 44.3141C48.2895 44.3032 48.3842 44.3109 48.4748 44.3366C48.5653 44.3623 48.65 44.4056 48.7237 44.4642C48.7976 44.5226 48.859 44.5951 48.9047 44.6773C48.9504 44.7596 48.9795 44.8502 48.9901 44.9438C49.001 45.0372 48.9935 45.132 48.9677 45.2225C48.942 45.313 48.8986 45.3977 48.8402 45.4714C48.7816 45.5453 48.7092 45.6067 48.6269 45.6524C48.5446 45.6982 48.454 45.7272 48.3605 45.7378C46.8797 45.9095 45.4561 46.0525 44.1255 46.1527L44.0682 46.1598Z" fill="#FF9100"/>
<path d="M39.0538 43.5059C35.5057 43.4985 31.9768 42.9854 28.5734 41.982C25.7248 41.1271 22.7699 40.6767 19.7958 40.6443C19.6061 40.6443 19.4241 40.569 19.29 40.4348C19.1559 40.3006 19.0804 40.1187 19.0804 39.929C19.0804 39.7392 19.1559 39.5573 19.29 39.4231C19.4241 39.2889 19.6061 39.2136 19.7958 39.2136C22.8907 39.2419 25.9662 39.7067 28.9312 40.5943C32.3122 41.5934 35.8215 42.0923 39.347 42.0751C47.6812 42.0178 58.6192 39.7573 58.7337 39.7358C58.9234 39.6979 59.1205 39.7369 59.2815 39.8441C59.4424 39.9514 59.5542 40.1183 59.5922 40.3082C59.6302 40.4979 59.5912 40.6948 59.4839 40.8559C59.3764 41.0168 59.2096 41.1286 59.0199 41.1666C58.9126 41.1666 47.8314 43.4772 39.3541 43.5345L39.0538 43.5059Z" fill="#FF9100"/>
<path d="M41.0996 43.4628C40.9371 43.4679 40.7777 43.4176 40.6477 43.32C40.5176 43.2226 40.4247 43.0837 40.3842 42.9262C39.717 39.8567 39.4404 36.7152 39.5615 33.5763C39.566 33.4822 39.5891 33.3901 39.6294 33.3051C39.6697 33.22 39.7263 33.1438 39.796 33.0807C39.8658 33.0175 39.9474 32.9687 40.036 32.9372C40.1246 32.9056 40.2187 32.8919 40.3126 32.8967C40.4961 32.9059 40.669 32.9853 40.7954 33.1184C40.922 33.2516 40.9924 33.4283 40.9923 33.6121C40.8798 36.6086 41.1393 39.6074 41.7648 42.54C41.7885 42.6311 41.794 42.7259 41.7807 42.8192C41.7677 42.9124 41.7363 43.0022 41.6885 43.0833C41.6407 43.1643 41.5772 43.2352 41.5019 43.2916C41.4266 43.3483 41.341 43.3893 41.2497 43.4127C41.2015 43.4346 41.1513 43.4513 41.0996 43.4628Z" fill="#FF9100"/>
<path d="M62.6036 32.074C62.0289 32.074 61.4671 31.9035 60.9893 31.5841C60.5115 31.2645 60.1392 30.8105 59.9197 30.2793C59.7001 29.7483 59.6429 29.1639 59.7555 28.6003C59.8682 28.0367 60.1455 27.5192 60.5524 27.1134C60.9594 26.7074 61.4776 26.4314 62.0414 26.3201C62.6053 26.2088 63.1894 26.2674 63.7201 26.4883C64.2507 26.7092 64.7038 27.0827 65.0221 27.5612C65.3403 28.0397 65.5095 28.602 65.5081 29.1768C65.5062 29.9458 65.1993 30.6827 64.6548 31.2259C64.1103 31.769 63.3727 32.074 62.6036 32.074ZM62.6036 27.7031C62.3122 27.7031 62.0273 27.7895 61.785 27.9515C61.5425 28.1133 61.3537 28.3435 61.2422 28.6128C61.1306 28.8821 61.1014 29.1783 61.1583 29.4643C61.2152 29.7501 61.3555 30.0127 61.5616 30.2188C61.7677 30.4249 62.0302 30.5652 62.3161 30.6221C62.6021 30.679 62.8983 30.6498 63.1675 30.5382C63.4369 30.4267 63.6671 30.2377 63.8289 29.9954C63.9909 29.7531 64.0773 29.4682 64.0773 29.1768C64.0782 28.9829 64.0408 28.7909 63.967 28.6117C63.8933 28.4325 63.7848 28.2696 63.6478 28.1326C63.5108 27.9955 63.3479 27.8871 63.1687 27.8134C62.9895 27.7396 62.7975 27.7022 62.6036 27.7031Z" fill="#FF9100"/>
<path d="M62.6036 37.4894C62.416 37.4886 62.2361 37.4141 62.1028 37.2819L58.2971 33.4832V33.4404C57.4563 32.5848 56.887 31.4998 56.6608 30.3219C56.4346 29.144 56.5613 27.9253 57.0252 26.8191C57.4891 25.713 58.2694 24.7685 59.2683 24.1042C60.2671 23.44 61.4399 23.0857 62.6394 23.0857C63.8389 23.0857 65.0117 23.44 66.0105 24.1042C67.0094 24.7685 67.7897 25.713 68.2536 26.8191C68.7175 27.9253 68.8442 29.144 68.6179 30.3219C68.3917 31.4998 67.8225 32.5848 66.9816 33.4404V33.4832L63.1831 37.2819C63.1081 37.3575 63.017 37.4153 62.9168 37.4512C62.8165 37.4871 62.7095 37.5001 62.6036 37.4894ZM59.3486 32.4817L62.6036 35.7439L65.8657 32.4817C66.5176 31.8307 66.9619 31.0009 67.1421 30.0974C67.3223 29.1937 67.2306 28.257 66.8782 27.4057C66.5259 26.5544 65.929 25.8266 65.163 25.3146C64.397 24.8026 63.4964 24.5292 62.575 24.5292C61.6537 24.5292 60.753 24.8026 59.9869 25.3146C59.221 25.8266 58.624 26.5544 58.2717 27.4057C57.9195 28.257 57.8276 29.1937 58.0079 30.0974C58.1881 31.0009 58.6323 31.8307 59.2842 32.4817H59.3486Z" fill="#FF9100"/>
<path d="M66.5885 26.2724C66.4944 26.2729 66.401 26.2549 66.314 26.2193C66.2267 26.1836 66.1474 26.1313 66.0806 26.0649L65.7158 25.7C65.582 25.5635 65.508 25.3793 65.5101 25.1882C65.512 24.997 65.5899 24.8144 65.7264 24.6807C65.8632 24.5469 66.0473 24.4729 66.2384 24.4749C66.4297 24.477 66.6121 24.5548 66.746 24.6914L67.1107 25.0563C67.2441 25.1903 67.3188 25.3716 67.3188 25.5606C67.3188 25.7495 67.2441 25.931 67.1107 26.0649C67.0422 26.133 66.9607 26.1865 66.8709 26.2221C66.7811 26.2577 66.6851 26.2749 66.5885 26.2724Z" fill="#FF9100"/>
<path d="M77.777 55.9749H18.8157C18.626 55.9749 18.4441 55.8996 18.31 55.7653C18.1757 55.6312 18.1005 55.4493 18.1005 55.2595C18.1005 55.0698 18.1757 54.8878 18.31 54.7537C18.4441 54.6195 18.626 54.5442 18.8157 54.5442H77.777C77.9668 54.5442 78.1487 54.6195 78.2828 54.7537C78.4171 54.8878 78.4924 55.0698 78.4924 55.2595C78.4924 55.4493 78.4171 55.6312 78.2828 55.7653C78.1487 55.8996 77.9668 55.9749 77.777 55.9749Z" fill="#FF9100"/>
<path d="M15.2817 55.9749H14.223C14.0333 55.9749 13.8513 55.8996 13.7171 55.7653C13.583 55.6312 13.5076 55.4493 13.5076 55.2595C13.5076 55.0698 13.583 54.8878 13.7171 54.7537C13.8513 54.6195 14.0333 54.5442 14.223 54.5442H15.2817C15.4714 54.5442 15.6534 54.6195 15.7876 54.7537C15.9217 54.8878 15.9971 55.0698 15.9971 55.2595C15.9971 55.4493 15.9217 55.6312 15.7876 55.7653C15.6534 55.8996 15.4714 55.9749 15.2817 55.9749Z" fill="#FF9100"/>
<path d="M17.9862 69.9719V60.5481H23.6736V61.5604H19.1274V64.5053H21.5202C22.195 64.5053 22.764 64.6158 23.2272 64.8366C23.6936 65.0575 24.0463 65.3689 24.2856 65.7707C24.5279 66.1725 24.6491 66.6465 24.6491 67.1926C24.6491 67.7386 24.5279 68.2202 24.2856 68.6375C24.0463 69.0546 23.6936 69.3814 23.2272 69.6176C22.764 69.8538 22.195 69.9719 21.5202 69.9719H17.9862ZM19.1274 68.978H21.5202C21.9496 68.978 22.3131 68.8921 22.6107 68.7203C22.9113 68.5454 23.1383 68.3214 23.2916 68.0484C23.4482 67.7724 23.5263 67.481 23.5263 67.1742C23.5263 66.7232 23.353 66.3352 23.0064 66.01C22.6598 65.6818 22.1643 65.5177 21.5202 65.5177H19.1274V68.978ZM27.0246 70.1007V69.0332H27.6136C27.8406 69.0332 28.0308 68.9886 28.1842 68.8998C28.3406 68.8107 28.4695 68.6958 28.5707 68.5546C28.6751 68.4134 28.761 68.2662 28.8283 68.1128L28.9757 67.7632L25.7178 60.5481H26.951L29.5462 66.4011L31.9206 60.5481H33.1354L29.8775 68.4442C29.7487 68.7387 29.6014 69.0117 29.4358 69.2632C29.2732 69.5149 29.0508 69.7173 28.7686 69.8707C28.4894 70.024 28.1106 70.1007 27.6321 70.1007H27.0246ZM34.6136 60.5481H35.9756L39.1782 68.3706H39.2887L42.4914 60.5481H43.8534V69.9719H42.7858V62.8119H42.6938L39.7489 69.9719H38.7181L35.7732 62.8119H35.6812V69.9719H34.6136V60.5481ZM46.528 69.9719H45.3316L48.792 60.5481H49.9698L53.4302 69.9719H52.2338L49.4177 62.0389H49.3441L46.528 69.9719ZM46.9697 66.2907H51.7921V67.303H46.9697V66.2907ZM54.7508 69.9719V62.9041H57.6405C58.4013 62.9041 59.0056 63.0758 59.4535 63.4194C59.9014 63.7629 60.1253 64.217 60.1253 64.7814C60.1253 65.2109 59.9981 65.5437 59.7435 65.7799C59.4888 66.013 59.162 66.1711 58.7633 66.2539C59.024 66.2907 59.2771 66.3827 59.5225 66.53C59.7711 66.6772 59.9766 66.8796 60.1392 67.1374C60.3017 67.392 60.383 67.7049 60.383 68.076C60.383 68.4381 60.2909 68.7618 60.1069 69.047C59.9229 69.3323 59.6591 69.5577 59.3155 69.7233C58.9718 69.8891 58.5608 69.9719 58.0823 69.9719H54.7508ZM55.7815 68.978H58.0823C58.4565 68.978 58.7495 68.889 58.9612 68.7111C59.1728 68.5332 59.2787 68.2909 59.2787 67.984C59.2787 67.619 59.1728 67.3321 58.9612 67.1235C58.7495 66.9119 58.4565 66.806 58.0823 66.806H55.7815V68.978ZM55.7815 65.8674H57.6405C57.932 65.8674 58.1819 65.8275 58.3905 65.7478C58.5992 65.6649 58.7587 65.5484 58.8691 65.3981C58.9826 65.2446 59.0393 65.0636 59.0393 64.855C59.0393 64.5575 58.9152 64.3244 58.6667 64.1557C58.4181 63.9838 58.0762 63.8979 57.6405 63.8979H55.7815V65.8674ZM61.6219 63.9163V62.9041H67.3646V63.9163H65.0455V69.9719H63.9595V63.9163H61.6219ZM71.453 70.1191C70.8149 70.1191 70.255 69.9672 69.7734 69.6636C69.2949 69.3599 68.9206 68.935 68.6507 68.389C68.3838 67.8429 68.2503 67.2049 68.2503 66.4747C68.2503 65.7386 68.3838 65.0959 68.6507 64.5467C68.9206 63.9976 69.2949 63.5713 69.7734 63.2675C70.255 62.9638 70.8149 62.8119 71.453 62.8119C72.091 62.8119 72.6494 62.9638 73.1279 63.2675C73.6095 63.5713 73.9838 63.9976 74.2507 64.5467C74.5206 65.0959 74.6556 65.7386 74.6556 66.4747C74.6556 67.2049 74.5206 67.8429 74.2507 68.389C73.9838 68.935 73.6095 69.3599 73.1279 69.6636C72.6494 69.9672 72.091 70.1191 71.453 70.1191ZM71.453 69.1436C71.9377 69.1436 72.3364 69.0194 72.6494 68.771C72.9623 68.5224 73.1939 68.1958 73.3442 67.7908C73.4945 67.3859 73.5696 66.9472 73.5696 66.4747C73.5696 66.0024 73.4945 65.5621 73.3442 65.1542C73.1939 64.7461 72.9623 64.4164 72.6494 64.1649C72.3364 63.9132 71.9377 63.7875 71.453 63.7875C70.9684 63.7875 70.5695 63.9132 70.2566 64.1649C69.9437 64.4164 69.7121 64.7461 69.5618 65.1542C69.4115 65.5621 69.3363 66.0024 69.3363 66.4747C69.3363 66.9472 69.4115 67.3859 69.5618 67.7908C69.7121 68.1958 69.9437 68.5224 70.2566 68.771C70.5695 69.0194 70.9684 69.1436 71.453 69.1436Z" fill="#FF9100"/>
</g>
<defs>
<clipPath id="clip0_38_322">
<rect width="92" height="92" fill="white"/>
</clipPath>
</defs>
</svg>
