<svg width="40" height="40" viewBox="0 0 40 40" fill="none" xmlns="http://www.w3.org/2000/svg">
<rect width="40" height="40" rx="5" fill="#FF9000"/>
<path d="M11 12.0305C14.4706 12.0229 14.4706 12.0229 18.0113 12.0152C19.1049 12.0118 19.1049 12.0118 20.2206 12.0084C21.1147 12.0073 21.1147 12.0073 21.534 12.0071C21.8252 12.0067 22.1165 12.0059 22.4077 12.0046C22.8503 12.0028 23.2928 12.0026 23.7354 12.0027C23.9282 12.0013 23.9282 12.0013 24.1249 12C25.4064 12.0036 26.582 12.1585 27.5779 13.0761C28.8866 14.5439 28.7092 16.6535 28.6685 18.5209C28.6256 19.4712 28.4377 20.4073 27.9548 21.2228C27.865 21.3782 27.865 21.3782 27.7734 21.5368C27.1916 22.1509 25.772 22.7399 25 23C26.0506 24.5515 23.4094 23.4798 24.5 25C25.7266 26.6663 26 26.2129 26 26.5C22.4474 26.9054 24.6966 26.1204 23.7354 25.5C23.2082 24.9254 22.908 24.229 22.6065 23.5031C22.3329 22.8983 21.9578 22.3726 21.5863 21.8314C21.4588 21.64 22.0827 23.4516 21.957 23.2589C21.9041 23.179 21.8512 23.0991 21.7967 23.0168C21.6839 22.8161 21.6839 22.8161 21.6839 22.571C21.5579 22.571 21.4319 22.571 21.3059 22.571C19.1324 22.571 16.9554 22.571 14.7161 22.571C14.7161 24.2697 14.7161 25.9684 14.7161 27.7186C13.4898 27.7186 12.2635 27.7186 11 27.7186C11 22.5415 11 17.3645 11 12.0305ZM14.7161 15.4623C14.7161 16.6757 14.7161 17.889 14.7161 19.1392C15.9497 19.1447 17.1833 19.1492 18.4168 19.1519C18.9896 19.1532 19.5624 19.1549 20.1352 19.1577C20.6879 19.1603 21.2405 19.1618 21.7932 19.1624C22.0042 19.1629 22.2151 19.1638 22.4261 19.1651C22.7213 19.1669 23.0166 19.1671 23.3118 19.167C23.4429 19.1683 23.4429 19.1683 23.5766 19.1697C24.0071 19.1679 24.3436 19.1592 24.7032 18.894C25.0158 18.3934 24.9781 17.8883 24.979 17.3084C24.9833 17.1616 24.9833 17.1616 24.9877 17.0118C24.99 16.5235 24.9694 16.2582 24.7295 15.8295C24.2501 15.3759 23.7183 15.4452 23.1009 15.4484C22.9649 15.4483 22.9649 15.4483 22.8261 15.4483C22.527 15.4484 22.2279 15.4493 21.9288 15.4503C21.7212 15.4505 21.5136 15.4507 21.3059 15.4508C20.7599 15.4513 20.2139 15.4525 19.6679 15.4539C19.1106 15.4551 18.5532 15.4557 17.9959 15.4563C16.9026 15.4576 15.8094 15.4598 14.7161 15.4623Z" fill="#FBFBFB"/>
<path d="M24 28L20 21H24L28 28H24Z" fill="white"/>
</svg>
