<svg width="40" height="40" viewBox="0 0 40 40" fill="none" xmlns="http://www.w3.org/2000/svg">
<rect width="40" height="40" rx="5" fill="#FF9000"/>
<circle cx="20" cy="20" r="14" fill="white"/>
<path fill-rule="evenodd" clip-rule="evenodd" d="M38 20C38 29.9405 29.9405 38 20 38C10.0595 38 2 29.9405 2 20C2 10.0595 10.0595 2 20 2C29.9405 2 38 10.0595 38 20ZM20.645 15.2885C18.8945 16.016 15.395 17.5235 10.148 19.8095C9.296 20.1485 8.849 20.48 8.8085 20.804C8.7395 21.353 9.4265 21.569 10.3595 21.8615C10.487 21.902 10.619 21.9425 10.754 21.9875C11.6735 22.286 12.9095 22.6355 13.5515 22.649C14.135 22.661 14.786 22.421 15.5045 21.929C20.4065 18.6185 22.937 16.946 23.096 16.91C23.2085 16.8845 23.3645 16.8515 23.4695 16.946C23.5745 17.039 23.564 17.216 23.5535 17.264C23.4845 17.5535 20.7935 20.057 19.3985 21.353C18.9635 21.7565 18.656 22.043 18.593 22.109C18.452 22.2545 18.308 22.394 18.17 22.5275C17.315 23.3495 16.676 23.9675 18.206 24.9755C18.941 25.46 19.529 25.8605 20.1155 26.2595C20.756 26.696 21.395 27.131 22.223 27.674C22.433 27.812 22.634 27.9545 22.8305 28.094C23.576 28.6265 24.2465 29.1035 25.0745 29.0285C25.5545 28.9835 26.0525 28.532 26.3045 27.1835C26.9 23.9945 28.073 17.0885 28.3445 14.2415C28.361 14.0051 28.351 13.7676 28.3145 13.5335C28.2927 13.3444 28.2006 13.1704 28.0565 13.046C27.842 12.8705 27.509 12.833 27.359 12.836C26.6825 12.848 25.6445 13.2095 20.645 15.2885Z" fill="#FF9000"/>
</svg>
