<svg width="114" height="22" viewBox="0 0 114 22" fill="none" xmlns="http://www.w3.org/2000/svg">
<path d="M9.91267 3.88021C10.1163 3.42335 10.2182 3.19492 10.36 3.12457C10.4831 3.06346 10.6277 3.06346 10.7509 3.12457C10.8927 3.19492 10.9945 3.42335 11.1982 3.88021L12.8202 7.51918C12.8804 7.65423 12.9105 7.72176 12.9572 7.77348C12.9983 7.81924 13.0487 7.85584 13.1049 7.88089C13.1685 7.90921 13.2421 7.91697 13.3891 7.93249L17.3513 8.35067C17.8487 8.40317 18.0974 8.42942 18.2081 8.54253C18.3042 8.64077 18.3489 8.77835 18.3289 8.91437C18.3058 9.07095 18.1201 9.23834 17.7485 9.57322L14.7888 12.2404C14.679 12.3394 14.6241 12.3889 14.5893 12.4492C14.5585 12.5026 14.5393 12.5618 14.5328 12.623C14.5255 12.6922 14.5408 12.7645 14.5715 12.9092L15.3982 16.8066C15.502 17.2959 15.5539 17.5406 15.4805 17.6808C15.4168 17.8027 15.2998 17.8877 15.1642 17.9106C15.0082 17.937 14.7915 17.8121 14.3582 17.5622L10.907 15.5716C10.7789 15.4977 10.7149 15.4608 10.6468 15.4463C10.5866 15.4336 10.5243 15.4336 10.464 15.4463C10.3959 15.4608 10.3319 15.4977 10.2038 15.5716L6.75261 17.5622C6.31933 17.8121 6.10268 17.937 5.94663 17.9106C5.81107 17.8877 5.69404 17.8027 5.63032 17.6808C5.55697 17.5406 5.60886 17.2959 5.71265 16.8066L6.53929 12.9092C6.56997 12.7645 6.58531 12.6922 6.57803 12.623C6.57158 12.5618 6.55234 12.5026 6.52155 12.4492C6.48676 12.3889 6.43184 12.3394 6.322 12.2404L3.36238 9.57322C2.99082 9.23834 2.80503 9.07095 2.78193 8.91437C2.76188 8.77835 2.80657 8.64077 2.90275 8.54253C3.01348 8.42942 3.26219 8.40317 3.75962 8.35067L7.72173 7.93249C7.86878 7.91697 7.9423 7.90921 8.00588 7.88089C8.06214 7.85584 8.1125 7.81924 8.15372 7.77348C8.2003 7.72176 8.2304 7.65423 8.29061 7.51918L9.91267 3.88021Z" fill="#F09F1D"/>
<path d="M33.1348 3.88021C33.3385 3.42335 33.4403 3.19492 33.5821 3.12457C33.7053 3.06346 33.8499 3.06346 33.973 3.12457C34.1148 3.19492 34.2167 3.42335 34.4203 3.88021L36.0424 7.51918C36.1026 7.65423 36.1327 7.72176 36.1793 7.77348C36.2205 7.81924 36.2709 7.85584 36.3271 7.88089C36.3907 7.90921 36.4642 7.91697 36.6113 7.93249L40.5734 8.35067C41.0709 8.40317 41.3195 8.42942 41.4303 8.54253C41.5264 8.64077 41.5711 8.77835 41.551 8.91437C41.528 9.07095 41.3422 9.23834 40.9707 9.57322L38.011 12.2404C37.9012 12.3394 37.8462 12.3889 37.8115 12.4492C37.7807 12.5026 37.7614 12.5618 37.755 12.623C37.7477 12.6922 37.763 12.7645 37.7937 12.9092L38.6204 16.8066C38.7242 17.2959 38.7761 17.5406 38.7027 17.6808C38.6389 17.8027 38.5219 17.8877 38.3864 17.9106C38.2304 17.937 38.0137 17.8121 37.5804 17.5622L34.1292 15.5716C34.0011 15.4977 33.9371 15.4608 33.869 15.4463C33.8087 15.4336 33.7464 15.4336 33.6862 15.4463C33.6181 15.4608 33.5541 15.4977 33.426 15.5716L29.9748 17.5622C29.5415 17.8121 29.3249 17.937 29.1688 17.9106C29.0332 17.8877 28.9162 17.8027 28.8525 17.6808C28.7791 17.5406 28.831 17.2959 28.9348 16.8066L29.7615 12.9092C29.7921 12.7645 29.8075 12.6922 29.8002 12.623C29.7937 12.5618 29.7745 12.5026 29.7437 12.4492C29.7089 12.3889 29.654 12.3394 29.5442 12.2404L26.5845 9.57322C26.213 9.23834 26.0272 9.07095 26.0041 8.91437C25.984 8.77835 26.0287 8.64077 26.1249 8.54253C26.2356 8.42942 26.4844 8.40317 26.9818 8.35067L30.9439 7.93249C31.091 7.91697 31.1645 7.90921 31.2281 7.88089C31.2843 7.85584 31.3347 7.81924 31.3759 7.77348C31.4225 7.72176 31.4526 7.65423 31.5128 7.51918L33.1348 3.88021Z" fill="#F09F1D"/>
<path d="M56.3571 3.88021C56.5608 3.42335 56.6626 3.19492 56.8044 3.12457C56.9276 3.06346 57.0722 3.06346 57.1953 3.12457C57.3371 3.19492 57.439 3.42335 57.6426 3.88021L59.2647 7.51918C59.3249 7.65423 59.355 7.72176 59.4016 7.77348C59.4428 7.81924 59.4932 7.85584 59.5494 7.88089C59.613 7.90921 59.6865 7.91697 59.8336 7.93249L63.7957 8.35067C64.2931 8.40317 64.5418 8.42942 64.6526 8.54253C64.7487 8.64077 64.7934 8.77835 64.7733 8.91437C64.7503 9.07095 64.5645 9.23834 64.193 9.57322L61.2333 12.2404C61.1235 12.3394 61.0685 12.3889 61.0338 12.4492C61.003 12.5026 60.9837 12.5618 60.9773 12.623C60.97 12.6922 60.9853 12.7645 61.016 12.9092L61.8427 16.8066C61.9465 17.2959 61.9984 17.5406 61.925 17.6808C61.8612 17.8027 61.7442 17.8877 61.6087 17.9106C61.4526 17.937 61.236 17.8121 60.8027 17.5622L57.3515 15.5716C57.2234 15.4977 57.1593 15.4608 57.0913 15.4463C57.031 15.4336 56.9687 15.4336 56.9085 15.4463C56.8404 15.4608 56.7764 15.4977 56.6483 15.5716L53.1971 17.5622C52.7638 17.8121 52.5471 17.937 52.3911 17.9106C52.2555 17.8877 52.1385 17.8027 52.0748 17.6808C52.0014 17.5406 52.0533 17.2959 52.1571 16.8066L52.9837 12.9092C53.0144 12.7645 53.0298 12.6922 53.0225 12.623C53.016 12.5618 52.9968 12.5026 52.966 12.4492C52.9312 12.3889 52.8763 12.3394 52.7665 12.2404L49.8068 9.57322C49.4353 9.23834 49.2495 9.07095 49.2264 8.91437C49.2063 8.77835 49.251 8.64077 49.3472 8.54253C49.4579 8.42942 49.7066 8.40317 50.2041 8.35067L54.1662 7.93249C54.3132 7.91697 54.3868 7.90921 54.4503 7.88089C54.5066 7.85584 54.557 7.81924 54.5982 7.77348C54.6448 7.72176 54.6749 7.65423 54.7351 7.51918L56.3571 3.88021Z" fill="#F09F1D"/>
<path d="M79.5793 3.88021C79.7829 3.42335 79.8848 3.19492 80.0266 3.12457C80.1497 3.06346 80.2943 3.06346 80.4175 3.12457C80.5593 3.19492 80.6611 3.42335 80.8648 3.88021L82.4868 7.51918C82.5471 7.65423 82.5772 7.72176 82.6238 7.77348C82.6649 7.81924 82.7153 7.85584 82.7716 7.88089C82.8352 7.90921 82.9087 7.91697 83.0558 7.93249L87.0179 8.35067C87.5153 8.40317 87.764 8.42942 87.8747 8.54253C87.9709 8.64077 88.0156 8.77835 87.9955 8.91437C87.9725 9.07095 87.7867 9.23834 87.4151 9.57322L84.4554 12.2404C84.3457 12.3394 84.2907 12.3889 84.2559 12.4492C84.2251 12.5026 84.2059 12.5618 84.1995 12.623C84.1922 12.6922 84.2075 12.7645 84.2382 12.9092L85.0648 16.8066C85.1686 17.2959 85.2205 17.5406 85.1472 17.6808C85.0834 17.8027 84.9664 17.8877 84.8309 17.9106C84.6748 17.937 84.4582 17.8121 84.0249 17.5622L80.5736 15.5716C80.4456 15.4977 80.3815 15.4608 80.3134 15.4463C80.2532 15.4336 80.1909 15.4336 80.1306 15.4463C80.0626 15.4608 79.9985 15.4977 79.8704 15.5716L76.4192 17.5622C75.986 17.8121 75.7693 17.937 75.6133 17.9106C75.4777 17.8877 75.3607 17.8027 75.2969 17.6808C75.2236 17.5406 75.2755 17.2959 75.3793 16.8066L76.2059 12.9092C76.2366 12.7645 76.2519 12.6922 76.2447 12.623C76.2382 12.5618 76.219 12.5026 76.1882 12.4492C76.1534 12.3889 76.0985 12.3394 75.9886 12.2404L73.029 9.57322C72.6574 9.23834 72.4717 9.07095 72.4486 8.91437C72.4285 8.77835 72.4732 8.64077 72.5694 8.54253C72.6801 8.42942 72.9288 8.40317 73.4262 8.35067L77.3884 7.93249C77.5354 7.91697 77.6089 7.90921 77.6725 7.88089C77.7288 7.85584 77.7791 7.81924 77.8203 7.77348C77.8669 7.72176 77.897 7.65423 77.9572 7.51918L79.5793 3.88021Z" fill="#F09F1D"/>
<path d="M102.802 3.88021C103.005 3.42335 103.107 3.19492 103.249 3.12457C103.372 3.06346 103.517 3.06346 103.64 3.12457C103.782 3.19492 103.883 3.42335 104.087 3.88021L105.709 7.51918C105.769 7.65423 105.799 7.72176 105.846 7.77348C105.887 7.81924 105.938 7.85584 105.994 7.88089C106.057 7.90921 106.131 7.91697 106.278 7.93249L110.24 8.35067C110.738 8.40317 110.986 8.42942 111.097 8.54253C111.193 8.64077 111.238 8.77835 111.218 8.91437C111.195 9.07095 111.009 9.23834 110.637 9.57322L107.678 12.2404C107.568 12.3394 107.513 12.3889 107.478 12.4492C107.447 12.5026 107.428 12.5618 107.422 12.623C107.414 12.6922 107.43 12.7645 107.46 12.9092L108.287 16.8066C108.391 17.2959 108.443 17.5406 108.369 17.6808C108.306 17.8027 108.189 17.8877 108.053 17.9106C107.897 17.937 107.68 17.8121 107.247 17.5622L103.796 15.5716C103.668 15.4977 103.604 15.4608 103.536 15.4463C103.475 15.4336 103.413 15.4336 103.353 15.4463C103.285 15.4608 103.221 15.4977 103.093 15.5716L99.6415 17.5622C99.2082 17.8121 98.9916 17.937 98.8355 17.9106C98.7 17.8877 98.583 17.8027 98.5192 17.6808C98.4459 17.5406 98.4978 17.2959 98.6016 16.8066L99.4282 12.9092C99.4589 12.7645 99.4742 12.6922 99.4669 12.623C99.4605 12.5618 99.4413 12.5026 99.4105 12.4492C99.3757 12.3889 99.3208 12.3394 99.2109 12.2404L96.2513 9.57322C95.8797 9.23834 95.6939 9.07095 95.6708 8.91437C95.6508 8.77835 95.6955 8.64077 95.7917 8.54253C95.9024 8.42942 96.1511 8.40317 96.6485 8.35067L100.611 7.93249C100.758 7.91697 100.831 7.90921 100.895 7.88089C100.951 7.85584 101.001 7.81924 101.043 7.77348C101.089 7.72176 101.119 7.65423 101.18 7.51918L102.802 3.88021Z" fill="#F09F1D"/>
</svg>
